<svg xmlns="http://www.w3.org/2000/svg" viewBox="0 0 48 48">
<path d="M26.854,23.026c0.137,1.082-0.296,1.95-1.302,2.603c-1.005,0.653-1.963,0.704-2.874,0.155
	c-0.67-0.292-1.13-0.79-1.379-1.495s-0.253-1.409-0.013-2.113c0.241-0.704,0.687-1.203,1.34-1.495
	c0.619-0.309,1.241-0.412,1.869-0.309c0.627,0.103,1.177,0.408,1.649,0.915C26.618,21.794,26.854,22.374,26.854,23.026z
	 M29.715,22.485c-0.241-1.838-1.211-3.247-2.912-4.227c-1.701-0.979-3.393-1.091-5.077-0.335c-1.082,0.481-1.946,1.241-2.59,2.281
	c-0.644,1.039-0.941,2.152-0.889,3.338c0.069,1.564,0.735,2.895,1.997,3.995c1.263,1.1,2.685,1.581,4.265,1.443
	c1.564-0.137,2.869-0.859,3.917-2.165C29.474,25.509,29.904,24.066,29.715,22.485z M35.874,8.516
	C35.531,8.052,35.05,7.67,34.431,7.37s-1.117-0.49-1.495-0.567c-0.378-0.077-0.988-0.185-1.83-0.322
	c-5-0.808-9.862-0.79-14.587,0.052c-0.739,0.12-1.306,0.223-1.701,0.309S13.95,7.116,13.4,7.408
	c-0.55,0.292-0.979,0.661-1.289,1.108c0.515,0.481,1.168,0.872,1.959,1.173c0.79,0.301,1.422,0.49,1.894,0.567
	s1.224,0.176,2.255,0.296c3.917,0.498,7.766,0.507,11.546,0.026c1.082-0.137,1.851-0.241,2.307-0.309
	c0.455-0.069,1.078-0.253,1.869-0.554C34.732,9.414,35.376,9.015,35.874,8.516z M37.343,35.191
	c-0.137,0.447-0.271,1.104-0.399,1.972c-0.129,0.868-0.249,1.589-0.361,2.165s-0.357,1.177-0.735,1.804
	c-0.378,0.627-0.876,1.113-1.495,1.456c-1.478,0.825-3.106,1.439-4.884,1.843c-1.778,0.404-3.514,0.593-5.206,0.567
	c-1.692-0.026-3.423-0.185-5.193-0.477c-0.79-0.137-1.491-0.292-2.1-0.464s-1.267-0.404-1.972-0.696
	c-0.704-0.292-1.332-0.666-1.881-1.121c-0.55-0.455-0.997-0.984-1.34-1.585c-0.43-1.649-0.919-4.158-1.469-7.526l0.155-0.412
	l0.464-0.232c3.832,2.543,8.183,3.814,13.054,3.814s9.231-1.271,13.08-3.814c0.361,0.103,0.567,0.301,0.619,0.593
	c0.052,0.292,0.009,0.679-0.129,1.16S37.343,35.037,37.343,35.191z M42.008,10.424c-0.447,2.869-1.4,8.496-2.861,16.881
	c-0.086,0.515-0.318,0.997-0.696,1.443c-0.378,0.447-0.752,0.79-1.121,1.031c-0.369,0.241-0.838,0.507-1.405,0.799
	c-4.33,2.165-9.57,2.921-15.721,2.268c-4.261-0.464-7.646-1.658-10.154-3.582c-0.258-0.206-0.477-0.434-0.657-0.683
	c-0.18-0.249-0.326-0.55-0.438-0.902s-0.189-0.644-0.232-0.876s-0.094-0.571-0.155-1.018s-0.107-0.747-0.142-0.902
	c-0.155-0.859-0.382-2.148-0.683-3.866c-0.301-1.718-0.541-3.106-0.722-4.162c-0.18-1.057-0.382-2.324-0.606-3.801
	S6.004,10.217,5.849,8.98C5.901,8.534,6.051,8.117,6.3,7.73c0.249-0.387,0.52-0.709,0.812-0.966c0.292-0.258,0.679-0.515,1.16-0.773
	s0.876-0.451,1.186-0.58c0.309-0.129,0.722-0.288,1.237-0.477c2.148-0.79,4.837-1.34,8.067-1.649
	c6.512-0.636,12.319-0.206,17.422,1.289c2.663,0.79,4.51,1.838,5.541,3.144C42,8.061,42.141,8.499,42.15,9.032
	C42.159,9.564,42.111,10.028,42.008,10.424z"/>
</svg>
