<svg xmlns="http://www.w3.org/2000/svg" viewBox="0 0 48 48">
<path d="M45.038,30.928C45.057,30.823,45,30.718,45,30.609V17.378c0-0.109,0.057-0.214,0.038-0.319
	c-0.006-0.035,0.034-0.069,0.026-0.104c-0.05-0.216-0.122-0.414-0.242-0.598c-0.013-0.02-0.004-0.043-0.017-0.062
	c-0.015-0.021-0.034-0.031-0.05-0.052c-0.13-0.171-0.276-0.329-0.462-0.449l-0.022-0.015c-0.001-0.001-0.002-0.002-0.004-0.003
	L25.395,3.507c-0.061-0.039-0.129-0.057-0.193-0.089c-0.062-0.031-0.119-0.061-0.185-0.085c-0.424-0.157-0.881-0.157-1.305,0
	c-0.065,0.024-0.123,0.054-0.184,0.085c-0.064,0.032-0.132,0.049-0.193,0.089L4.462,15.775c-0.002,0.001-0.004,0.003-0.007,0.004
	l-0.021,0.014c-0.186,0.12-0.334,0.278-0.464,0.449c-0.016,0.021-0.04,0.031-0.055,0.052c-0.014,0.019-0.015,0.043-0.027,0.062
	c-0.119,0.184-0.212,0.383-0.261,0.598c-0.008,0.035-0.294,0.069-0.3,0.104C3.309,17.164,3,17.269,3,17.378v13.231
	c0,0.109,0.309,0.214,0.327,0.319c0.006,0.035,0.148,0.069,0.156,0.103c0.05,0.216,0.214,0.416,0.334,0.601
	c0.012,0.019,0.049,0.042,0.062,0.06c0.014,0.021,0.055,0.03,0.071,0.05c0.13,0.172,0.289,0.331,0.475,0.452L23.331,44.48
	c0.061,0.04,0.133,0.057,0.197,0.089c0.061,0.03,0.119,0.06,0.184,0.084c0.212,0.078,0.431,0.132,0.653,0.132
	s0.441-0.053,0.653-0.132c0.064-0.024,0.122-0.053,0.183-0.084c0.064-0.032,0.133-0.05,0.195-0.089l18.902-12.286
	c0.19-0.124,0.342-0.286,0.474-0.463c0.012-0.016,0.033-0.022,0.045-0.039c0.013-0.019,0.014-0.041,0.026-0.06
	c0.12-0.185,0.173-0.384,0.223-0.601C45.073,30.997,45.033,30.963,45.038,30.928z M7,21.008l4.265,2.985L7,26.979V21.008z
	 M24.365,28.301l-6.155-4.308l6.155-4.308l6.155,4.308L24.365,28.301z M26,16.394V8.575l13.76,8.861l-6.136,4.25L26,16.394z
	 M22,16.394l-7.323,5.292l-6.191-4.25L22,8.575V16.394z M14.677,26.3L22,31.593v7.82L8.486,30.551L14.677,26.3z M26,31.593
	l7.688-5.292l6.008,4.25L26,39.412V31.593z M36.735,23.993L41,21.008v5.971L36.735,23.993z"/>
</svg>
