<svg xmlns="http://www.w3.org/2000/svg" viewBox="0 0 48 48">
<path d="M24,3.518c-11.597,0-21,9.403-21,21c0,9.28,6.017,17.15,14.362,19.926c1.05,0.192,1.433-0.456,1.433-1.01
	c0-0.5-0.019-2.156-0.029-3.909c-5.84,1.269-7.074-2.476-7.074-2.476c-0.956-2.425-2.331-3.071-2.331-3.071
	C7.451,32.675,9.505,32.7,9.505,32.7c2.108,0.146,3.218,2.164,3.218,2.164c1.874,3.209,4.917,2.281,6.111,1.743
	c0.191-1.354,0.734-2.281,1.333-2.804c-4.662-0.531-9.566-2.333-9.566-10.38c0-2.294,0.819-4.166,2.16-5.636
	c-0.214-0.533-0.937-2.67,0.208-5.56c0,0,1.761-0.564,5.775,2.153c1.674-0.468,3.47-0.699,5.255-0.706
	c1.784,0.008,3.581,0.241,5.258,0.709c4.007-2.72,5.77-2.153,5.77-2.153c1.148,2.893,0.426,5.027,0.21,5.558
	c1.346,1.47,2.158,3.342,2.158,5.636c0,8.067-4.912,9.844-9.59,10.364c0.756,0.651,1.425,1.928,1.425,3.886
	c0,2.807-0.028,5.071-0.028,5.763c0,0.559,0.382,1.213,1.446,1.007C38.989,41.662,45,33.792,45,24.518
	C45,12.921,35.597,3.518,24,3.518z"/>
</svg>
