<svg xmlns="http://www.w3.org/2000/svg" viewBox="0 0 48 48">
	<path d="M43.683,10.071c-0.536-1.379-1.25-2.548-2.418-3.716c-1.168-1.168-2.337-1.883-3.716-2.418
		c-1.331-0.519-2.872-0.876-5.096-0.974c-2.24-0.097-2.954-0.13-8.666-0.13s-6.427,0.016-8.666,0.13
		c-2.24,0.097-3.765,0.454-5.096,0.974c-1.379,0.536-2.548,1.25-3.716,2.418S4.426,8.692,3.89,10.071
		c-0.519,1.331-0.876,2.872-0.974,5.096c-0.097,2.24-0.13,2.954-0.13,8.666s0.016,6.427,0.13,8.666
		c0.097,2.24,0.454,3.765,0.974,5.096c0.536,1.379,1.25,2.548,2.418,3.716c1.168,1.168,2.337,1.883,3.716,2.418
		c1.331,0.519,2.872,0.876,5.096,0.974c2.24,0.097,2.954,0.13,8.666,0.13s6.427-0.016,8.666-0.13
		c2.24-0.097,3.765-0.454,5.096-0.974c1.379-0.536,2.548-1.25,3.716-2.418c1.168-1.168,1.883-2.337,2.418-3.716
		c0.519-1.331,0.876-2.872,0.974-5.096c0.097-2.24,0.13-2.954,0.13-8.666s-0.016-6.427-0.13-8.666
		C44.56,12.928,44.202,11.402,43.683,10.071z M40.876,32.321c-0.097,2.045-0.438,3.165-0.73,3.895
		c-0.373,0.974-0.844,1.688-1.574,2.418c-0.73,0.73-1.428,1.185-2.418,1.574c-0.747,0.292-1.85,0.633-3.895,0.73
		c-2.223,0.097-2.872,0.13-8.488,0.13s-6.281-0.016-8.488-0.13c-2.045-0.097-3.165-0.438-3.895-0.73
		c-0.974-0.373-1.688-0.844-2.418-1.574c-0.73-0.73-1.185-1.428-1.574-2.418c-0.292-0.747-0.633-1.85-0.73-3.895
		c-0.097-2.223-0.13-2.889-0.13-8.488s0.016-6.281,0.13-8.488c0.097-2.045,0.438-3.165,0.73-3.895
		C7.769,10.477,8.24,9.763,8.97,9.033c0.73-0.73,1.428-1.185,2.418-1.574c0.747-0.292,1.85-0.633,3.895-0.73
		c2.223-0.097,2.889-0.13,8.488-0.13s6.281,0.016,8.488,0.13c2.045,0.097,3.165,0.438,3.895,0.73
		c0.974,0.373,1.688,0.844,2.418,1.574c0.73,0.73,1.185,1.428,1.574,2.418c0.292,0.747,0.633,1.85,0.73,3.895
		c0.097,2.223,0.13,2.889,0.13,8.488S40.973,30.114,40.876,32.321z"/>
	<path d="M23.77,13.041c-5.956,0-10.792,4.836-10.792,10.792s4.836,10.792,10.792,10.792
		s10.792-4.836,10.792-10.792S29.726,13.041,23.77,13.041z M23.77,30.844c-3.862,0-7.011-3.132-7.011-7.011
		c0-3.862,3.132-7.011,7.011-7.011s7.011,3.132,7.011,7.011C30.781,27.696,27.633,30.844,23.77,30.844z"/>
	<circle cx="34.985" cy="12.619" r="2.515"/>
</svg>
