<svg xmlns="http://www.w3.org/2000/svg" viewBox="0 0 48 48">
<path d="M24.985,3C13.523,3,7.744,11.217,7.744,18.071c0,4.149,1.571,7.84,4.94,9.214c0.553,0.228,1.048,0.008,1.208-0.603
	c0.111-0.422,0.375-1.49,0.493-1.936c0.161-0.605,0.099-0.816-0.348-1.345c-0.971-1.145-1.593-2.628-1.593-4.73
	c0-6.096,4.562-11.554,11.878-11.554c6.478,0,10.038,3.958,10.038,9.244c0,6.957-3.079,12.828-7.648,12.828
	c-2.524,0-4.412-2.086-3.808-4.647c0.725-3.057,2.129-6.354,2.129-8.561c0-1.974-1.06-3.621-3.253-3.621
	c-2.58,0-4.653,2.669-4.653,6.244c0,2.277,0.769,3.818,0.769,3.818s-2.64,11.187-3.103,13.146c-0.921,3.902-0.138,8.684-0.072,9.166
	c0.039,0.287,0.407,0.356,0.574,0.14c0.237-0.311,3.311-4.104,4.355-7.896c0.296-1.072,1.697-6.63,1.697-6.63
	c0.839,1.6,3.289,3.005,5.894,3.005c7.754,0,13.016-7.069,13.016-16.532C40.257,9.664,34.196,3,24.985,3z"/>
</svg>
