<svg xmlns="http://www.w3.org/2000/svg" viewBox="0 0 48 48">
	<path d="M40.077,12.363c1.885-1.157,3.133-2.737,3.745-4.746c-1.834,0.973-3.661,1.64-5.485,2.009
		c-1.64-1.764-3.717-2.66-6.206-2.66c-2.434,0-4.489,0.854-6.167,2.515c-1.668,1.673-2.511,3.705-2.511,6.078
		c0,0.721,0.091,1.365,0.273,1.911c-7.177-0.245-13.117-3.222-17.798-8.953c-0.793,1.402-1.19,2.83-1.19,4.307
		c0,3.035,1.281,5.441,3.838,7.207c-1.458-0.124-2.744-0.492-3.838-1.097c0,2.168,0.637,3.978,1.913,5.572
		c1.281,1.577,2.926,2.583,4.935,3.012c-0.728,0.187-1.496,0.275-2.284,0.275c-0.728,0-1.244-0.061-1.549-0.194
		c0.537,1.766,1.549,3.199,3.012,4.295c1.458,1.101,3.136,1.682,5.021,1.734c-3.108,2.438-6.661,3.644-10.681,3.644
		c-0.985,0-1.682-0.014-2.105-0.089c3.959,2.571,8.367,3.847,13.243,3.847c4.991,0,9.4-1.265,13.239-3.794
		c3.838-2.515,6.671-5.618,8.491-9.272c1.829-3.649,2.735-7.448,2.735-11.414v-1.092c1.769-1.33,3.199-2.828,4.293-4.482
		C43.413,11.663,41.773,12.127,40.077,12.363z"/>
</svg>
