<svg xmlns="http://www.w3.org/2000/svg" viewBox="226 226 48 48">
<path fill="#2aa198" d="M229,266.42c0,1.975,1.599,3.575,3.574,3.575h11.617c1.975,0,3.575-1.6,3.575-3.575v-14.298
	c0-1.975-1.6-3.574-3.575-3.574h-5.737c-0.992,0-1.787-0.804-1.787-1.787c0-0.322,0.08-0.545,0.08-0.545
	c1.305-4.325,4.602-7.793,8.829-9.329l0.018-0.018c1.278-0.545,2.172-1.814,2.172-3.289c0-1.975-1.6-3.574-3.575-3.574
	c-0.483,0-0.938,0.098-1.358,0.268l-0.162,0.063C234.674,233.454,229,241.229,229,250.335V266.42z M252.234,266.42
	c0,1.975,1.599,3.575,3.574,3.575h11.617c1.975,0,3.574-1.6,3.574-3.575v-14.298c0-1.975-1.599-3.574-3.574-3.574h-5.737
	c-0.992,0-1.787-0.804-1.787-1.787c0-0.331,0.08-0.545,0.08-0.545c1.305-4.325,4.602-7.793,8.829-9.329l0.018-0.018
	c1.278-0.545,2.172-1.814,2.172-3.289c0-1.975-1.599-3.574-3.574-3.574c-0.483,0-0.938,0.098-1.358,0.268l-0.162,0.063
	c-7.998,3.118-13.672,10.893-13.672,19.999V266.42z"/>
</svg>
